<?xml version="1.0" encoding="utf-8"?>
<!-- Generator: Adobe Illustrator 27.3.1, SVG Export Plug-In . SVG Version: 6.00 Build 0)  -->
<svg version="1.1" id="Layer_1" focusable="false" xmlns="http://www.w3.org/2000/svg" xmlns:xlink="http://www.w3.org/1999/xlink"
	 x="0px" y="0px" viewBox="0 0 32 32" style="enable-background:new 0 0 32 32;" xml:space="preserve">
<style type="text/css">
	.st0{fill:none;stroke:#000000;stroke-miterlimit:10;}
	.st1{stroke:#000000;stroke-miterlimit:10;}
</style>
<g>
	<path class="st0" d="M16,16.6l5.5-5.5"/>
	<path class="st0" d="M20.7,5.4C14.6,2.8,7.4,5.7,4.8,11.8S5,25.2,11.2,27.8s13.3-0.3,15.9-6.4c1.3-3,1.3-6.5,0-9.5"/>
	<path class="st0" d="M19,9.4c-4-1.7-8.6,0.2-10.3,4.1s0.2,8.6,4.1,10.3c4,1.7,8.6-0.2,10.3-4.1c0.8-2,0.8-4.2,0-6.1"/>
	<path class="st0" d="M17.3,13.4c-1.8-0.7-3.8,0.1-4.5,1.8s0.1,3.8,1.8,4.5s3.8-0.1,4.5-1.8c0.4-0.9,0.4-1.8,0-2.7"/>
	<path class="st1" d="M25.3,4.9L26,6.2l0.1,0.3l0.3,0.1l1.3,0.7l-3.1,3.1l-2.5,0.1L22.2,8L25.3,4.9z M25.5,3.2l-4.3,4.3l-0.2,4
		l4-0.2L29.4,7l-2.5-1.3L25.5,3.2z"/>
</g>
</svg>
