<?xml version="1.0" encoding="utf-8"?>
<!-- Generator: Adobe Illustrator 27.3.1, SVG Export Plug-In . SVG Version: 6.00 Build 0)  -->
<svg version="1.1" id="Layer_1" focusable="false" xmlns="http://www.w3.org/2000/svg" xmlns:xlink="http://www.w3.org/1999/xlink"
	 x="0px" y="0px" viewBox="0 0 32 32" style="enable-background:new 0 0 32 32;" xml:space="preserve">
<style type="text/css">
	.st0{fill:none;stroke:#000000;stroke-miterlimit:10;}
</style>
<g>
	<path class="st0" d="M16,29.3c10.2-4.4,10.7-11.6,10.7-11.6V6.8c-0.4-1-1.3-1.8-2.4-2C22.4,4.4,16,2.7,16,2.7h0
		c0,0-6.4,1.7-8.3,2.1c-1.1,0.2-2,1-2.4,2v10.9C5.3,17.7,5.7,24.9,16,29.3L16,29.3z"/>
	<path class="st0" d="M16,25c7.1-3.1,7.4-8.1,7.4-8.1V9.4c-0.3-0.7-0.9-1.2-1.7-1.4C20.4,7.7,16,6.5,16,6.5h0c0,0-4.4,1.2-5.7,1.5
		C9.5,8.1,8.9,8.7,8.6,9.4v7.5C8.6,16.9,8.9,21.9,16,25L16,25z"/>
</g>
</svg>
