<svg aria-hidden="true" focusable="false" xmlns="http://www.w3.org/2000/svg" class="icon icon-sm icon-stroke-text " style="" viewBox="0 0 24 24">
        <!--?lit$299735633$-->
  <path class="icon-login__door" d="M.44,0H5.33A1.781,1.781,0,0,1,7.11,1.778V14.222A1.781,1.781,0,0,1,5.33,16H.44A.444.444,0,0,1,0,15.556v-.889a.444.444,0,0,1,.44-.444H5.33V1.778H.44A.444.444,0,0,1,0,1.333V.444A.444.444,0,0,1,.44,0Z" transform="translate(14.891 4)"></path>
  <g transform="translate(3 6.668)">
    <path class="icon-login__arrow" d="M12.44,5.163V5.5a.683.683,0,0,1-.19.471l-4.57,4.56a.446.446,0,0,1-.32.132.44.44,0,0,1-.31-.132l-.63-.622a.448.448,0,0,1,0-.631L9.48,6.22H.44A.444.444,0,0,1,0,5.776V4.887a.444.444,0,0,1,.44-.444H9.48L6.42,1.385a.41.41,0,0,1-.13-.311A.41.41,0,0,1,6.42.763L7.05.131A.44.44,0,0,1,7.36,0a.446.446,0,0,1,.32.131l4.57,4.56A.685.685,0,0,1,12.44,5.163Z"></path>
  </g>
      </svg>