<?xml version="1.0" encoding="utf-8"?>
<!-- Generator: Adobe Illustrator 27.3.1, SVG Export Plug-In . SVG Version: 6.00 Build 0)  -->
<svg version="1.1" id="Layer_1" focusable="false" xmlns="http://www.w3.org/2000/svg" xmlns:xlink="http://www.w3.org/1999/xlink"
	 x="0px" y="0px" viewBox="0 0 32 32" style="enable-background:new 0 0 32 32;" xml:space="preserve">
<style type="text/css">
	.st0{fill:none;stroke:#000000;stroke-miterlimit:10;}
</style>
<g>
	<path class="st0" d="M11.5,15.7h-9"/>
	<path class="st0" d="M29.5,15.7h-9"/>
	<path class="st0" d="M27.7,8.9l-7.8,4.5"/>
	<path class="st0" d="M22.7,4l-4.5,7.8"/>
	<path class="st0" d="M16,2.2v9"/>
	<path class="st0" d="M9.3,4l4.5,7.8"/>
	<path class="st0" d="M4.3,8.9l7.8,4.5"/>
	<path class="st0" d="M28.6,21.4c-6.3,0-6.3-2.5-12.6-2.5s-6.3,2.5-12.6,2.5"/>
	<path class="st0" d="M20.5,28c-2.2,0-2.2-0.4-4.5-0.4S13.8,28,11.5,28"/>
	<path class="st0" d="M25,24.5c-4.5,0-4.5-1.1-9-1.1s-4.5,1.1-9,1.1"/>
</g>
</svg>
